<svg id="Layer_1" data-name="Layer 1" xmlns="http://www.w3.org/2000/svg" viewBox="0 0 700 700"><defs><style>.cls-1{fill:none;}.cls-2{fill:#1d1d1d;}</style></defs><title>Artboard 1</title><path class="cls-1" d="M647.39,684.86l-1.73-.71h0l-1.36.34h0l-.84,1.6.89.53,1.18,1.44h0l1.39.71h0l1.79-2s0,0,0,0l1.17,3.08s0,0,0,0l1.6-1.06h0l1.62-.52h0l2.17,1.19-1.23-3.08h0l-1.77.07h0l-2.23.76s0,0,0,0L649,685.34v-.1l-1.62-.38Z"/><path class="cls-1" d="M53.37,438.72l3.68-2.14a10.84,10.84,0,0,1,0-1.15L56,427.93l0,.05c-.68,1.44-1.57,3.21-2.62,5.15A22.19,22.19,0,0,1,53.37,438.72Z"/><polygon class="cls-1" points="659.44 689.35 658.99 689.05 657.84 690.8 658.92 691.39 659.44 689.35"/><polygon class="cls-1" points="668.26 686.06 667.93 685.42 666.46 685.57 666.05 685.57 666.73 686.58 668.26 686.06"/><polygon class="cls-1" points="664.36 685.38 663.44 685.11 663 685.43 663.8 685.69 664.36 685.38"/><polygon class="cls-1" points="529.14 476.79 528.44 476.29 526.58 479.1 528.33 480.06 529.14 476.79"/><polygon class="cls-1" points="543.38 471.48 542.83 470.45 540.47 470.7 539.81 470.7 540.9 472.31 543.38 471.48"/><polygon class="cls-1" points="537.09 470.38 535.61 469.95 534.89 470.48 536.18 470.88 537.09 470.38"/><path class="cls-1" d="M527.21,649.11a6.24,6.24,0,0,0,.79.17v-.67C527.5,648.83,527.2,649,527.21,649.11Z"/><path class="cls-1" d="M600.32,698.42a2.59,2.59,0,0,0,.64-.28h-1.17Z"/><path class="cls-1" d="M543.07,646l.42-1c.37-.91.14-1.55-.51-1.65-1,.24-2.56.56-3.42.7a7.14,7.14,0,0,0-2.16.67c-.33.22-.08.69.56,1s2,.92,3.06,1.36h0a2,2,0,0,0,1,.11A2.29,2.29,0,0,0,543.07,646Z"/><polygon class="cls-1" points="506.78 474.79 509.05 475.97 512 472.75 513.86 477.67 516.47 475.99 519.11 475.15 522.6 477.19 520.63 472.2 517.75 472.34 514.11 473.56 512.41 470.43 512.41 470.23 509.8 469.61 507.01 468.48 504.81 469.02 503.44 471.61 504.87 472.47 506.78 474.79"/><path class="cls-1" d="M597.53,695.2l-.56.11.27.07a8.62,8.62,0,0,1,1.3.62h0a2.2,2.2,0,0,0,1.46-1.3h0C599.12,694.91,598.15,695.1,597.53,695.2Z"/><path class="cls-1" d="M606.51,689.35l-.24-.08a1.84,1.84,0,0,0-2.47,1.55v0c-.09.64-.17,1.19-.21,1.58l.68.62a11.34,11.34,0,0,0,3.47,2.11,2.6,2.6,0,0,0,1.78-.12,3,3,0,0,0-.33-1.31l-.55-1.08,0,0a2.15,2.15,0,0,1,.95-2.9h0A9.32,9.32,0,0,1,606.51,689.35Z"/><polygon class="cls-1" points="639.25 685.9 638.16 685.25 638.26 685.79 639.25 685.9"/><path class="cls-1" d="M532.38,648.58c.32-.67.24-1.14-.12-1.29-.9.29-2.06.71-2.63.94s-1.08.52-1.08.63a4.88,4.88,0,0,0,1.08.18,2.17,2.17,0,0,1,1.08.46h.12a2.46,2.46,0,0,0,.6.07A2.27,2.27,0,0,0,532.38,648.58Z"/><path class="cls-1" d="M447.24,665.16a1.39,1.39,0,0,1,1.46.51l1.21,1.32a2.86,2.86,0,0,0,3.18.81,11.92,11.92,0,0,0,3-2.52,13.12,13.12,0,0,1,2.41-2.28c.56-.35.58-1.47.05-2.5a4.77,4.77,0,0,0-2.57-2.27,7.06,7.06,0,0,0-3.62.43,31.45,31.45,0,0,1-3.91,1.25,6.92,6.92,0,0,0-1.88.59,15.29,15.29,0,0,1-.77,1.55Z"/><path class="cls-1" d="M500.33,495l.51-.13,3.17-1.46-.25-.78-3.11,1.68-1,1.11c.24-.11.47-.23.71-.33Z"/><path class="cls-1" d="M261.16,277.46c2.36-8.11-3-23-3-23s-17.83-23-21.37-14.91c-1.45,3.29,2.7,26.26,4.16,52.1,1.1,19.53,1.38,41.15,1.39,57.53L246.9,348l9.36-2.59c5.62-2.8,11-5.32,15.61-7.16C268.52,324.26,259.2,284.13,261.16,277.46Z"/><path class="cls-1" d="M394.48,464l2.13-2.21-1.35-1.43-2.49-1.47-4.09,3.49,4.06-.18Z"/><path class="cls-1" d="M50.69,440.28c.09-.93.16-1.92.22-2.95-.95,1.56-2,3.12-3,4.59Z"/><path class="cls-1" d="M449.11,515.43c1.27-1.2,2.39-2.2,2.39-2.2s14.29-6.4,26.59-31.2l1.13-3.68.8-.39.49-1.12-1.43-1.26-.29.14-2.14.48L474.86,478l-1.2,4.06L471,481.4,468.71,479l-2.18,3-2.88-.72-2.21-.77-2.61.29-2.95-.55-3.47-.33-1.48,2.92-3.74.48,2,4-2.25-1.84-2.4,1.54-2.14-2.36-2.56,1.5-2.57,1-1.79-4.82-2.5,1.14-2.34.16-1.95-2.54-2.72.65-2.52,1.14-2.62.36h-2.67l-2.21-1.75-2.58-.15-1.07,3L409,483.21l-1.43,2.7-2.66.57-2.34-2.07-1-3-3.11,1.68-2,2.3,3.58,3.2L396.42,491l3.09,1.68-1.84,3.55,1.91,1.9,2.9.64-.84.34-2.09,1.75-2.4.88-1.84,1-2,1.41-3.09,1.43-.8,3.25-.36-.66-2.36-.61-.75-2.14-2.7-.7-1.47-1.2c-2.73,13.59-5.28,28.35-5.28,28.35l-.94,1.25c7.27-4,18.14-9.24,29.7-11.47S434.31,517.81,449.11,515.43Zm-46.47-16.59-.15,0,1.41-.57,2-1.73,2.31-.8,1.68.2-.83.31-1.31,2.68.69,2.35L404,500.9Z"/><polygon class="cls-1" points="449 460.6 450.68 459.81 449.8 459.19 447.5 458.83 444.78 458.17 446.28 461.76 449 460.6"/><path class="cls-1" d="M277.78,193.68s4.74,27.7,4.74,31.06-10.1-4.72-10.1-4.72l10.69,19.14L284.88,322h5.95l5.74,6.89L307,214a2,2,0,0,1-.7-.6c-.39-.77-2-5.59-3.16-9.27l-17.56-13.89-8.91-6.84Z"/><polygon class="cls-1" points="496.68 471.2 494.93 470.16 494.91 470.18 495.06 471.04 496.68 471.2"/><polygon class="cls-1" points="412.02 437.35 411.11 437.9 411.34 438.4 412.02 437.35"/><polygon class="cls-1" points="498.81 502.15 498.58 502.31 498.81 502.42 498.81 502.15"/><path class="cls-1" d="M471.41,496.73l11.8-5.89.28-.8-2.34-1.9-.32-2.23,1.93-3-2.27-.39C478.05,486.78,475,491.8,471.41,496.73Z"/><path class="cls-1" d="M483,491.49A94.93,94.93,0,0,0,469.75,499c-4.52,6-9.66,11.72-15,15.46,8.12-1.5,14.91-3.29,18.65-5.61,2.52-1.57,5.88-3.4,9.53-5.28l-.26-1.9,1.36-2.18-1.56-2.73,2.45-1.13h-1.86l2.54-1.05.43.55,2-1.43-2.4-.73-3-.31Z"/><polygon class="cls-1" points="456.34 462.53 456.88 462.42 454.84 461.57 452.48 460.83 453.65 463.32 456.34 462.53"/><path class="cls-2" d="M440.45,700.58l0,0H587.58c-.75-.22-1.38-.39-1.55-.43s.26-.36,1.07-.69,2.26-.85,3.19-1.15,1.33.27.86,1.26a2.3,2.3,0,0,1-1,1h30v-1.7c-.42-.24-.83-.49-1.24-.76s-.84-.57-1.3-.88v.85H601a2.59,2.59,0,0,1-.64.28l-.53-.28h-10.9a2.17,2.17,0,0,0,.94-1c.45-.95.09-1.47-.81-1.2s-2.24.76-3.07,1.07-1.24.62-1.08.66l1.49.42H528l0,0V649.28a6.24,6.24,0,0,1-.79-.17c0-.08.29-.28.79-.5v-25.7c.1-.08.2-.13.29-.21a4,4,0,0,1,3.35-1,3.38,3.38,0,0,0,3.23-1.33,2.3,2.3,0,0,1,2.93-.77,2.58,2.58,0,0,0,3.11-.72l.43-.54a1.51,1.51,0,0,1,.21-.23,1.89,1.89,0,0,1,2.67.09,5.94,5.94,0,0,0,3.14,1.66,9.65,9.65,0,0,1,3.24.93h0a4.48,4.48,0,0,1,1.33,1.41,4.44,4.44,0,0,0-1.83-2.44,10.29,10.29,0,0,0-3.33-1,6.2,6.2,0,0,1-3.28-1.73,2,2,0,0,0-3,.15l-.45.56a2.69,2.69,0,0,1-3.25.75,2.4,2.4,0,0,0-3.06.8,3.53,3.53,0,0,1-3.33,1.39,4.22,4.22,0,0,0-3.49,1,4.26,4.26,0,0,1-3.49,1,4.73,4.73,0,0,0-3.57.82c-.82.68-2.12,1.88-2.91,2.65a2.59,2.59,0,0,1-3.25.06l-1.55-1.15c-1-.75-2.26-.76-2.79,0s-1.22,1.25-1.5,1.16a9,9,0,0,0-2.44.13,13,13,0,0,1-3.69,0,14.79,14.79,0,0,1-3.45-1.22,31.93,31.93,0,0,1-3.21-2c-.83-.62-2.21-1.6-3.06-2.18a10.51,10.51,0,0,0-3.79-1.34l-.65-.09a2.93,2.93,0,0,1-2.43-2.55v-.07a9.61,9.61,0,0,0-1.51-4.11l-.55-.77c-.73-1-.35-1.53.84-1.14l1.2.39c1.19.38,1.65.15,1-.52a19.74,19.74,0,0,1-2.25-3.2l-.06-.1a2.93,2.93,0,0,0-3.27-1.31l-.52.16a11.44,11.44,0,0,1-4,.47,4.52,4.52,0,0,1-2.88-1.89,10.9,10.9,0,0,1-1.29-3.93l0-.29a2.69,2.69,0,0,0-2.28-2.4,6.47,6.47,0,0,1-3.37-1.35,9.26,9.26,0,0,1-1.87-2.34,5.65,5.65,0,0,0-2.65-2l-.52-.22a2.87,2.87,0,0,0-3.21.62,9.17,9.17,0,0,0-1.38,3.73l-.19,1.67a1.58,1.58,0,0,1-2.34,1.33l-.68-.31a20.66,20.66,0,0,0-3-1.12c-.5-.1-.92-.29-.94-.41s-.39-.2-.82-.18a5.51,5.51,0,0,1-1,0c-.12,0-.25,0-.27,0a9.32,9.32,0,0,1-1.49.15,5.18,5.18,0,0,1-3-1.29,1.69,1.69,0,0,0-2.67.63l-.76,1.42a1.51,1.51,0,0,1-2.6.34l-1.28-1.39a2.17,2.17,0,0,0-3-.32,3.15,3.15,0,0,1-3.42.26,3.27,3.27,0,0,0-3.47.18,23.24,23.24,0,0,0-2.92,3.07l-.46.59a1.58,1.58,0,0,1-2.69-.08l-.95-1.38a9.05,9.05,0,0,0-3-2.65,2.88,2.88,0,0,0-3.14,1l-.35.43a5.56,5.56,0,0,0-1.4,3,9.33,9.33,0,0,1-.56,3,6.53,6.53,0,0,1-2.35,2.77,2.69,2.69,0,0,0-.9,3.17l-53.61-47.43,9.25-12.37h0l45.45-24.15s54.86-8.26,64.7-10.53c2.49-.57,6-2.26,9.82-4.46l.19.37.86,2.52,1.93,1.55,2.7.7.75,2.16,2.36.59.37.68.79-3.27,3.09-1.41,2-1.43,1.84-1,.32-.11,1.34,1.77-.82,3.24.66-.4,2.34.56,1.68-1.54,2.7.63,2.43-.47,2-1.8,2.32-1.68-.69-.34,4.45-1.79-3-2.91.45-.65,1.75.93-1.3-1.55.82-1.13-.18-2.57,2.68-1.65-2.39-3.09-1.09-2.2,2.48.47,2.81,1.14.41-2.75,3-.59.16-.2,1-.16,1.82-.81,4-.21,1.37,1.77,2.33-.14,2.5-1.16,1.79,4.84,2.57-1,2.57-1.52,2.13,2.36,2.41-1.52,2.24,1.82-2-4,3.74-.45,1.48-3,3.47.37,3,.52,2.62-.27,2.2.75,2.88.72,2.18-3,2.32,2.39,2.63.63,1.2-4.06,1.8-1.77L581,487l2.25-1.09-4.11-.52,1.18-3.36-1.48-2.09-2-1.25-.91-3-3.34,1.43L571,474.68l-2.65,1.43-2.3-1.89-2.65.86-2.27-1.86-2.61.57-2.68.79-.23-.49.46-.25-1.89-3.5,2.16-1.14L554.41,467l1.29-2.83-1.52-.53-.81-.84-2.54-.9-2-1.55-1.48-2.18-1.13-2.33-1.2-2.3-2.93-2.09,1.27-2.9-.52-3.77,2.79,2.88-.61-2.22-.07-3.23-3.45-.65-2.11-1.44-.21-2.72,1.25-3.11-2.4-1.5-.84-2.34.06-1.75-2.24-2.7-2.32,1.09-2.45,3.54L528,427.77,525.92,426l-2.68,1.5-2.07-1.86-3,3.27-2-3.75L514,427l-2-.11-.07-.09-.32.07-1.09-.07,0,.32-1.25.25-3.34,1.5-.5-4.27-1.55-2.05-3.26,1.34-.75,1.59L498,427.18l-2.82.21-.36,3.31L493.32,433l-2.52.3-3.36-1-1.57,2.81-1.59,1.68,3.81-1.25-2.22,3.09-.25,3.18-3.54.48L480,443.71l-2.12,1.54-2.33,1.23-2.43.45-2.68-.38-.71.22-1.36-1.84-3.59,2.68-2-1.95-2-1.72-2.91.59-1.91-2-2.93.57-1.68-2.5-2.54,1.4-2.27-2.83-2.2,2.22-2.34.19-2.27,1.15-.54,3.52-3.86-1.45,1.47,2,1.66,1.43.77,2.4-.84,4.16,2.61.66,3.16-1,.43,3.14-.07-.18-3,2.77-2.7.93-2-2.93L434,459.62l-2.36-.72-2.57.7-2.38-.45-1-1.12.34,1.78,3.07-.19-.5,2.77-.18.82-1.45,2.2-.87,3.39-3.52-1.91-1.84,2-2.56-2.11-2.34,3-2.4-1-2.53.66-2-3.11-2.43.14-2.77,1.13h-2.57l-.94-3.61c2.84-3.5,5-6.05,5-6.05v-.58l2.35.93,2.7.64,2.81-.43-.4-3.93,2.76-1.09,1.28-2.38,3.72.43,2-2.25-.68-3.5,1.57-2.09,1.32-2.27,2.58-1.38.25-2.54-1.7.43-2.47-.93L420.83,439l-2.18-2-2.52,1.36-1.91-4.22-.72,1.07.2-1.82,2.18-2.06L420,432l.43-3,1.52-2.3,1-3-3.16-1.43-1.06-2.72-3.52,2.38-1.13-4.31-2.71.7-1.65-2.59-2.71.57-3.33,1.5-.5-4.27-1.55-2-3.26,1.31-.75,1.59-1.84,1.66-2.82.21-.36,3.31-1.45,2.34-2.53.29L385.27,421l-1.56,2.82-1.59,1.68,3.81-1.22-2.22,3.08-.25,3.18-3.54.46-2.14,1.45L375.67,434l-2.34,1.21-2.42.48-2.69-.41-1.11.36-1.59-.25-.18,3.11-2.72,1,1.38,2.05-3.29,2.2,1.86,2.72L361,447.73l1.75-.59,2-1.23,2.54,2.79,2.16.84,2.09-.91L374,447l2,1.33,2.12,1.09,2.52.53,1.2,2.47L369.52,456l4.34-.59.31,2.91,1.93,1.75,2.27.47,2.71-1.31,2.85-.39.41,4-1.43-.56-.7,3.65-2.91.07-2.24,1.11-1.16,3.77,4.7.82-1.93,3,.32,2.22,2.34,1.88-.91,2.64,1.51.16a.81.81,0,0,0,.07.22,5.61,5.61,0,0,1,.27,2.81l-2,.89,1.48,2.58c0,.14,0,.27-.07.41l-1.2,1.92.29,2.13c-.07.3-.14.59-.22.89l-3.68,1.09,2.58,3.06c-.05.19-.1.38-.16.57h-.11l.07.14c-3.2,11.41-7.91,25.08-8.8,29.1-.53,2.37-11.3,14.24-25.13,28.72l-6.44-5.7-19.52-71.5c8.54-21.05,17.88-44.7,17.88-44.7l-5.29-84s-12.85-5.65-26.05-10l-6.64-8L313,216.05l1,.25L317.41,204s-6.29-11.95-8.11-13.25a10.42,10.42,0,0,0-4.31-1.11L289.6,172.15,275.72,109.6,251.66,93.69h0l.68-1.21-.59-.08c1.14-1.27,3.42-4,4-6.11.68-2.72,2.54-7.26,4-12,7.24.22,9.49.94,9.49-1,0-1.8-.49.66-7-4.21.36-2.08.89-10.18-4-14.68,0,0-8.38-.88-12.14-3.24S234.5,54,232,61.35c-.94,2.84-1.52,4.58-1.88,5.64-4,.66-6.9,1.72-7.48,3.28l-.62.08s3.74.56,9.16,1.28v11a24.2,24.2,0,0,0,1.3,5.88v1l-.26,0c0,.62,0,1.09,0,1.41l-3.78,1.19v2.6s-12.31,6.23-14,6.44c-1.13.15-2.85,4.66-3.87,7.68-3,0-7,.57-8.62,3.58-2.84,5.17-9.65,37.47-9.65,37.47s-11.92,9-11.92,15.83,3.4,59.11,3.4,59.11a115.11,115.11,0,0,0,19.71,6.84,109.06,109.06,0,0,0,1.82,12.08c.56,2.81,4.63,23.49,9.49,48.28,3.9,20,5.8,43.74,6.73,63L209,358.45c-7.55-6.19-19-14.78-23.91-14.29-5.41.53-14.55,16.6-19.43,25.93-10-1.69-19.33-2.34-21.73.55-2.07,2.5-10.08,9.95-19.4,18.41l1-11.16-2.72,12.7-5.66,5.11c6-12.41,4-29.54,4-29.54-.28,14.18-5.84,27.55-8.94,33.93-5.16,4.62-10.14,9-14.2,12.64L95,414.51l-7.13,4.15.43-3.19-1.14,3.6-4,2.3.62-.75-.38-1.19A33.8,33.8,0,0,0,84,407.57a31.72,31.72,0,0,1-1.57,8.6l-2-6.32,1.23,8.66a51.15,51.15,0,0,1-2.37,5.2l-1.23.71c1.85-10.17-5-19.81-5-19.81,3.23,7.23,3,15.69,2.32,21.36l-5,2.93,1.2-13.23-3,14.31-5.09,2.95c5.68-12.35,3.79-29,3.79-29-.22,11.32-3.82,22.13-6.83,29.29a8.21,8.21,0,0,0-.7-3.24l-.13.11a6.85,6.85,0,0,0-1.62,2.07l-1.54-4.76a11.29,11.29,0,0,0,1.17-2.76s-.44,1-1.21,2.66l-.66-2,.38,2.65,0,.06,0-.05,1.06,7.5a10.84,10.84,0,0,0,0,1.15l-3.68,2.14a22.19,22.19,0,0,0-.06-5.59c1-1.94,1.94-3.71,2.62-5.15a36.51,36.51,0,0,1-2.8,3.92A33.3,33.3,0,0,0,48.24,420,35.87,35.87,0,0,1,51,434.39c-2.36,2.64-5,5.3-7.54,7.66a16.87,16.87,0,0,0-.7-4.84l-.13.17A13.3,13.3,0,0,0,40.2,445c-1.41,1.27-2.66,2.36-3.6,3.17l-.21.18-1.63.74a2,2,0,0,0,0,.44l-1.68,1c2.56-5.91,4.71-12.14,6.05-16.32a94.69,94.69,0,0,1-8.74,15.46l-1.8-7.81.52,9.7c-.5.72-1,1.43-1.48,2.12h0l-2.43,1.43h0c2.08-9.62-3.44-19.13-3.44-19.13,1.93,5.63,1.87,11.79,1.21,16.88a7.94,7.94,0,0,0-1.68-2.5l-.08.15a7.54,7.54,0,0,0,0,6.9l-5.55,3.21h0a106.15,106.15,0,0,0,1.47-10.86,54.6,54.6,0,0,1-3.42,10.32l1.18-12.91L11.5,463.07l-5.75,3.34c6.88-12.46,4.77-30.94,4.77-30.94-.27,13.6-5.4,26.47-8.54,33.14l-.9.53V700.82Zm100-229.88,2.36-.25.55,1-2.48.84-1.09-1.61Zm-4.86-.75,1.48.43-.91.5-1.29-.41Zm-7.17,6.34.7.5-.81,3.27-1.75-1ZM504.8,469l2.21-.54,2.79,1.13,2.61.62v.2l1.7,3.13,3.64-1.22,2.88-.14,2,5-3.49-2-2.64.84-2.61,1.68L512,472.75,509.05,476l-2.27-1.18-1.91-2.32-1.43-.86Zm-4.15,25.29,3.11-1.68.25.78-3.17,1.46-.51.13.05.09c-.24.1-.47.22-.71.33Zm-1.84,7.84v.27l-.23-.12Zm-3.88-32,1.75,1-1.61-.16-.16-.86ZM412,437.35l-.68,1-.23-.5Zm76,56.35-2,1.43-.43-.55-2.54,1.05h1.86l-2.45,1.13,1.56,2.73-1.36,2.18.26,1.9c-3.65,1.88-7,3.71-9.53,5.28-3.74,2.32-10.53,4.11-18.65,5.61,5.34-3.74,10.48-9.43,15-15.46A94.93,94.93,0,0,1,483,491.49l-.4,1.17,3,.31Zm-5.24-10.78-1.93,3,.32,2.23,2.34,1.9-.28.8-11.8,5.89c3.54-4.93,6.64-10,9.08-14.2Zm-27.92-21.34,2,.83-.54.12-2.68.79-1.18-2.49Zm-7.34-2.75,2.3.36.88.62-1.68.79-2.72,1.16-1.5-3.59Zm-54.73.07,2.49,1.47,1.35,1.43L394.48,464l-1.74-1.8-4.06.18Zm-16.24,73s2.55-14.76,5.28-28.35l1.47,1.2,2.7.7.75,2.14,2.36.61.36.66.8-3.25,3.09-1.43,2-1.41,1.84-1,2.4-.88,2.09-1.75.84-.34-2.9-.64-1.91-1.9,1.84-3.55L396.42,491l3.61-2.49-3.58-3.2,2-2.3,3.11-1.68,1,3,2.34,2.07,2.66-.57,1.43-2.7,3.27,1.23,1.07-3,2.58.15,2.21,1.75h2.67l2.62-.36,2.52-1.14,2.72-.65,1.95,2.54,2.34-.16,2.5-1.14,1.79,4.82,2.57-1,2.56-1.5,2.14,2.36,2.4-1.54,2.25,1.84-2-4,3.74-.48,1.48-2.92,3.47.33,2.95.55,2.61-.29,2.21.77,2.88.72,2.18-3L471,481.4l2.64.63,1.2-4.06,1.79-1.77,2.14-.48.29-.14,1.43,1.26L480,478l-.8.39L478.09,482c-12.3,24.8-26.59,31.2-26.59,31.2s-1.12,1-2.39,2.2c-14.8,2.38-32.34,4.08-43.82,6.28s-22.43,7.44-29.7,11.47ZM50.69,440.28l-2.82,1.64c1.07-1.47,2.09-3,3-4.59C50.85,438.36,50.78,439.35,50.69,440.28ZM448.47,659.91a31.45,31.45,0,0,0,3.91-1.25,7.06,7.06,0,0,1,3.62-.43,4.77,4.77,0,0,1,2.57,2.27c.53,1,.51,2.15-.05,2.5a13.12,13.12,0,0,0-2.41,2.28,11.92,11.92,0,0,1-3,2.52,2.86,2.86,0,0,1-3.18-.81l-1.21-1.32a1.39,1.39,0,0,0-1.46-.51l-1.42-3.11a15.29,15.29,0,0,0,.77-1.55A6.92,6.92,0,0,1,448.47,659.91ZM303.18,204.13c1.18,3.68,2.77,8.5,3.16,9.27a2,2,0,0,0,.7.6L296.57,328.93,290.83,322h-5.95l-1.77-82.88L272.42,220s10.1,8.1,10.1,4.72-4.74-31.06-4.74-31.06l-1.07-10.28,8.91,6.84ZM246.9,348l-4.53,1.25c0-16.38-.29-38-1.39-57.53-1.46-25.84-5.61-48.81-4.16-52.1,3.54-8.11,21.37,14.91,21.37,14.91s5.33,14.87,3,23c-2,6.67,7.36,46.8,10.71,60.74-4.6,1.84-10,4.36-15.61,7.16Z"/><path class="cls-2" d="M42.61,436.81l.13.4C46.33,432.54,42.61,436.81,42.61,436.81Z"/><path class="cls-2" d="M39.1,434.22a23,23,0,0,0,1.52-4.93S40.07,431.23,39.1,434.22Z"/><path class="cls-2" d="M59.45,429.72l.13.27C63.17,426.84,59.45,429.72,59.45,429.72Z"/><path class="cls-2" d="M21,450.17l.21.21C23.49,446.17,21,450.17,21,450.17Z"/><path class="cls-2" d="M17.38,446.13s-.06,1.44-.26,3.66A12.09,12.09,0,0,0,17.38,446.13Z"/><path class="cls-2" d="M572.69,641.78c.45-.54.57-1.16.26-1.4s-.69.2-.83,1S572.23,642.31,572.69,641.78Z"/><path class="cls-2" d="M568.57,612.71c-.32,0-.3.17,0,.26s.59,0,.58-.1S568.89,612.65,568.57,612.71Z"/><path class="cls-2" d="M577.63,594a5.94,5.94,0,0,0,2.72-2.77,1.63,1.63,0,0,1,.29-.49,1.59,1.59,0,0,1,2.25-.17l1.27.86a1.56,1.56,0,0,0,.68.31,1.46,1.46,0,0,0,1.67-1.2l.33-1.23a1.58,1.58,0,0,1-1.61-.19l-1.33-.9a1.68,1.68,0,0,0-2.65.69,6.18,6.18,0,0,1-2.84,2.9l-.44.2a2.6,2.6,0,0,0-1.44,2.67,2.63,2.63,0,0,1,.68-.49Z"/><path class="cls-2" d="M601.85,641.92a6.69,6.69,0,0,0-3.46.41,30.82,30.82,0,0,1-3.82,1.22,12.24,12.24,0,0,1-2.63.22l.17,0a12.4,12.4,0,0,0,4-.15,31.12,31.12,0,0,0,4-1.27,7.78,7.78,0,0,1,1.8-.45l0,0Z"/><path class="cls-2" d="M570,614.71a6,6,0,0,0,2.89-.33,4.19,4.19,0,0,1,3.48.65l.09.06a2.69,2.69,0,0,0,3.23-.06,3.06,3.06,0,0,1,3.24-.41l.19.07a1.92,1.92,0,0,0,2.46-1.15l.07-.17a1.84,1.84,0,0,1-1.68,0,3.2,3.2,0,0,0-3.4.43,2.8,2.8,0,0,1-3.39.07l-.09-.07a4.35,4.35,0,0,0-3.62-.68,6.12,6.12,0,0,1-3,.35c-.64-.16-1.09.46-1,1.39A.66.66,0,0,1,570,614.71Z"/><path class="cls-2" d="M617.66,643.37s0,0,0,0v1.33a3,3,0,0,0-2.33.16,18.38,18.38,0,0,0-3.24,2.6l-.65.68a2.77,2.77,0,0,1-1.22.69l0,0a2.8,2.8,0,0,0,3.45-.39l.68-.71a19.27,19.27,0,0,1,3.36-2.72,3.08,3.08,0,0,1,2.43-.18v-3a3,3,0,0,0-.85.27A15.26,15.26,0,0,0,617.66,643.37Z"/><path class="cls-2" d="M589.4,587.13a3,3,0,0,0,3.06-1.29,3.16,3.16,0,0,1,3-1.4,24.07,24.07,0,0,1,3.87,1.29l.64.3a1.6,1.6,0,0,0,.67.18,1.51,1.51,0,0,0,1.57-1.46l.14-1.14a2.13,2.13,0,0,1-.67-.17l-.68-.31a25.6,25.6,0,0,0-4-1.34,3.31,3.31,0,0,0-3.15,1.46,3.15,3.15,0,0,1-3.14,1.38,2.17,2.17,0,0,0-2.53,1.7l-.29,1.11A2.05,2.05,0,0,1,589.4,587.13Z"/><path class="cls-2" d="M588.18,609.87c0-.13-.09-.26-.14-.38a4.93,4.93,0,0,0-.42.77h0a.27.27,0,0,1,.2.12C588.1,610.78,588.26,610.56,588.18,609.87Z"/><path class="cls-2" d="M600,655.3a9.94,9.94,0,0,0,1.31.41C600.86,655.56,600.41,655.42,600,655.3Z"/><path class="cls-2" d="M611.09,653.85a1.66,1.66,0,0,0,1.56,0l-2-1.8a1.27,1.27,0,0,0-1.79-.16l1.85,1.68A1.58,1.58,0,0,0,611.09,653.85Z"/><path class="cls-2" d="M606.8,579l.5.2a5.43,5.43,0,0,1,2.54,1.92,8.62,8.62,0,0,0,1.79,2.24,6.19,6.19,0,0,0,3.24,1.29A2.57,2.57,0,0,1,617,587v.28a10.47,10.47,0,0,0,.49,2.06v-3.06a5.19,5.19,0,0,0,1.35.31,2.29,2.29,0,0,1,1.31.66,11,11,0,0,1-.63-2.51l0-.28a2.69,2.69,0,0,0-2.29-2.4,6.55,6.55,0,0,1-3.37-1.35,9.29,9.29,0,0,1-1.87-2.35,5.73,5.73,0,0,0-2.64-2l-.52-.21a2.88,2.88,0,0,0-3.22.62,8,8,0,0,0-1.06,2.31A2.74,2.74,0,0,1,606.8,579Z"/><path class="cls-2" d="M591.44,615.19c.11-.19-.14-.52-.49-.71s-.4,0-.14.34S591.35,615.38,591.44,615.19Z"/><path class="cls-2" d="M543.49,645l-.42,1A2.29,2.29,0,0,1,542,647.2a2.07,2.07,0,0,0,1.74-1.33l.4-1h0c.46-1.1-.06-1.78-1.1-1.53h0C543.63,643.48,543.86,644.12,543.49,645Z"/><path class="cls-2" d="M583.73,657.31a2.8,2.8,0,0,0,1.23,1,2,2,0,0,1-.24-.26l-.6-.77a2.19,2.19,0,0,0-1-.74l.08.08Z"/><path class="cls-2" d="M532.38,648.58a2.27,2.27,0,0,1-1,1,2.31,2.31,0,0,0,2.06-1.26h0c.46-.95.11-1.42-.8-1.15l-.43.14C532.62,647.44,532.7,647.91,532.38,648.58Z"/><path class="cls-2" d="M571.21,644c-.13.65-1.19,1.14-2.35,1.08a1.57,1.57,0,0,0-.53,0,1.54,1.54,0,0,0-1.25,1.79c.19,1,.4,2.16.47,2.47h0a10.43,10.43,0,0,0,1.08,2.1,13.65,13.65,0,0,1,1.55,3.62l.11.49a1.67,1.67,0,0,0,.23.57,1.38,1.38,0,0,0,.32.36,2,2,0,0,1-.13-.34l-.12-.51A14.87,14.87,0,0,0,569,651.8a11.2,11.2,0,0,1-1.19-2.19c-.07-.32-.29-1.48-.49-2.58a1.61,1.61,0,0,1,1.86-1.87c1.22.07,2.32-.45,2.45-1.15s0-.87-.37-.54A1.47,1.47,0,0,1,571.21,644Z"/><path class="cls-2" d="M554.7,645.13l.3-.46a2.49,2.49,0,0,1,1.36-.95,2.57,2.57,0,0,0-1.67,1l-.32.47a3,3,0,0,1-1.17,1A2.91,2.91,0,0,0,554.7,645.13Z"/><path class="cls-2" d="M555,625.7l1.29-.49a2.5,2.5,0,0,1,.83-.19c.55-.78.08-1.06-1.07-.63l-1.35.51a1.77,1.77,0,0,1-2-.48,1.32,1.32,0,0,0,.11.4A1.7,1.7,0,0,0,555,625.7Z"/><path class="cls-2" d="M600,694.71l.39-1h0c.46-1.11-.08-1.79-1.12-1.54s-2.6.57-3.47.71a7.43,7.43,0,0,0-2.16.67c-.34.23-.09.66.55,1l.87.4a8.74,8.74,0,0,1,1.89.35l.56-.11C598.15,695.1,599.12,694.91,600,694.71Z"/><path class="cls-2" d="M603.8,690.86v0a1.84,1.84,0,0,1,2.47-1.55l.24.08a9.32,9.32,0,0,0,3.06.35l.45-.25v-.05a1.2,1.2,0,0,0,.12-2.15l-.68-.48a1.85,1.85,0,0,1-1.08.84,8.26,8.26,0,0,1-3.89-.2l-.23-.08a2.26,2.26,0,0,0-.45-.1,1.77,1.77,0,0,0-1.92,1.58c-.15,1.05-.23,1.89-.24,2v0a7.71,7.71,0,0,1,1.64,1.33l.29.27C603.63,692.05,603.71,691.5,603.8,690.86Z"/><path class="cls-2" d="M610.48,679l-.4-.41a7.71,7.71,0,0,0-.52,1.13h0a8.86,8.86,0,0,0-.2,3.12l.9-.81v0A2.15,2.15,0,0,0,610.48,679Z"/><polygon class="cls-2" points="407.72 498.89 409.03 496.21 409.86 495.9 408.18 495.69 405.87 496.5 403.9 498.23 402.49 498.8 402.64 498.84 404 500.9 408.41 501.24 407.72 498.89"/><polygon class="cls-2" points="425.76 458.04 425.4 456.11 424.62 456.7 425.76 458.04"/><polygon class="cls-2" points="428.43 437.34 427.64 437.19 427.6 437.55 428.43 437.34"/><path class="cls-2" d="M550.6,620.81h0a9.65,9.65,0,0,0-3.24-.93,5.94,5.94,0,0,1-3.14-1.66,1.89,1.89,0,0,0-2.67-.09,1.51,1.51,0,0,0-.21.23l-.43.54a2.58,2.58,0,0,1-3.11.72,2.3,2.3,0,0,0-2.93.77,3.38,3.38,0,0,1-3.23,1.33,4,4,0,0,0-3.35,1c-.09.08-.19.13-.29.21v75.18l0,0h58.34l-1.49-.42c-.16,0,.25-.34,1.08-.66s2.16-.8,3.07-1.07,1.26.25.81,1.2a2.17,2.17,0,0,1-.94,1h28.75v-.85c.46.31.94.62,1.3.88s.82.52,1.24.76c.6.36,1.21.69,1.84,1l.29.13a2.91,2.91,0,0,1,.67.42h7.71a3.22,3.22,0,0,1,.61-.24,9.53,9.53,0,0,0,1.7-.67l.92.28-.86.63h8.51l.21-.25,1.93-1.08.16.47-1.75.81H656l.53-.1.1-.12.65-.11,1.07-.5h0l2.47-.13h0l.73.95h1.67l1.44-.67.25.67H672v-.06l2.31-.28h0l.91-1.81s0,0,0,0l2.14.22h0l1.83.32h0l1.61-.17h0l1.37.48h0l1.78.44h0l1.33-1.84s0,0,0,0l1.42,1.46h0l1.61.38s0,0,0,0l.75-2.49h0l1.07-1.07h0l1.32-.3h0L693,695l-2.53-.32s0,0,0,0l.72-2v0l-.91-1.29h0l-1.21-.77h0l-.56-1.84s0,0,0,0l-2.05.88h0l-1-1.48h0l-1.63.87h0l-1.4-1.15h0l-1.63.53h0l-1.39-1.14h0l-1.62.35h0L676,688l-.14-.31.28-.16L675,685.34s0,0,0,0l1.31-.7-1.17-1.33a0,0,0,0,1,0,0l.81-1.75-.95-.33-.51-.52-1.57-.56h0l-1.21-1h0l-.91-1.36h0l-.7-1.44-.75-1.42h0l-1.81-1.28a0,0,0,0,1,0,0l.78-1.79h0l-.31-2.34,1.73,1.79-.38-1.38h0v-2l0,0-2.13-.4h0l-1.29-.87v0l-.13-1.68h0l.77-1.91a0,0,0,0,0,0,0L665,662h0l-.51-1.45h0v-1.07l-1.39-1.66h0l-1.43.67h0l-1.5,2.13h0l-1.37-1.75h0l-1.3-1.07h0l-1.64.92h0l-1.25-1.13h0l-1.84,2s0,0,0,0l-1.2-2.27h0L650,658.45h0l-1.23-.09h-.87v.19l-.78.16-2,.92s0,0,0,0l-.3-2.62h0l-.94-1.24h0l-2,.82-.46,1h0l-1.13,1.07h0l-1.72.11,0,0-.19,1.7a6.11,6.11,0,0,0-.35-.67l-.29-.44a1.24,1.24,0,0,1,.17-1.75,1.2,1.2,0,0,1,.73-.28l2-.36a1.71,1.71,0,0,0,1.45-1.94,1.73,1.73,0,0,0-.07-.31l-.29-1a4.82,4.82,0,0,0-2-2.61h0a9.34,9.34,0,0,0-3.24-.75,2.54,2.54,0,0,1-2.24-2l-.15-.71c-.2-1.08-.78-1.81-1.28-1.61s-.81-.54-.7-1.64l.11-1.08a1.85,1.85,0,0,1,2-1.75h.08a14.28,14.28,0,0,1,3.55,1.08,5.86,5.86,0,0,0,3.17.54h0a7,7,0,0,0,2.68-1.42,5.46,5.46,0,0,0,1.44-3,1.87,1.87,0,0,1,2.15-1.55h0l1.56.22c1.08.15,1.08,0,.07-.3l-11.9-3.59a1.55,1.55,0,0,1-1.26-1.8,2,2,0,0,1,.11-.35,3.85,3.85,0,0,1,2.37-1.9,15.37,15.37,0,0,0,3-1c.75-.39,1.92-1.08,2.61-1.55a2.75,2.75,0,0,1,2.83.21,19.68,19.68,0,0,0,2.89,1.64,4.06,4.06,0,0,0,2.71,0,9,9,0,0,0,2.72-2l.53-.6a2.33,2.33,0,0,1,2.66-.71,15.21,15.21,0,0,0,2.4,1.17c.61.21.64,0,.08-.41s-.52-1.54.11-2.44l.08-.12a2,2,0,0,0-.51-2.81l-.87-.58a1.83,1.83,0,0,1-.79-2.42c.49-.71.1-1.58-.85-2a3.25,3.25,0,0,1-1.85-2.63c-.06-1.08-.57-1.91-1.13-1.83a4.53,4.53,0,0,1-1.72-.07,7.56,7.56,0,0,0-2.42,0,11.72,11.72,0,0,1-3.24,0h0a13.41,13.41,0,0,1-3-1.08,25.66,25.66,0,0,1-2.82-1.77c-.74-.54-2-1.41-2.71-1.91a8.86,8.86,0,0,0-3.34-1.19l-.58-.08a2.57,2.57,0,0,1-2.15-2.25V603a8.58,8.58,0,0,0-1.33-3.62l-.49-.68c-.65-.9-.31-1.35.74-1l1.08.35c1.07.33,1.44.13.88-.46a17.93,17.93,0,0,1-2-2.82l-.05-.1a2.56,2.56,0,0,0-2.88-1.14l-.45.14a10.3,10.3,0,0,1-3.53.41h0a4,4,0,0,1-2.54-1.66,9.75,9.75,0,0,1-1.13-3.48v-.25a2.41,2.41,0,0,0-.71-1.49,2.29,2.29,0,0,0-1.31-.66,5.19,5.19,0,0,1-1.35-.31v3.06a10.47,10.47,0,0,1-.49-2.06V587a2.57,2.57,0,0,0-2.15-2.3,6.19,6.19,0,0,1-3.24-1.29,8.62,8.62,0,0,1-1.79-2.24,5.43,5.43,0,0,0-2.54-1.92l-.5-.2a2.8,2.8,0,0,0-3.07.59h0a8.59,8.59,0,0,0-1.32,3.56l0,.45-.14,1.14a1.51,1.51,0,0,1-1.57,1.46A1.6,1.6,0,0,1,600,586l-.64-.3a24.07,24.07,0,0,0-3.87-1.29,3.16,3.16,0,0,0-3,1.4,3,3,0,0,1-3.06,1.29,2.1,2.1,0,0,0-2.42,1.62l-.14.52-.33,1.23a1.46,1.46,0,0,1-1.67,1.2,1.56,1.56,0,0,1-.68-.31l-1.27-.86a1.59,1.59,0,0,0-2.25.17,1.63,1.63,0,0,0-.29.49,5.94,5.94,0,0,1-2.72,2.77l-.42.19a2.63,2.63,0,0,0-.68.49,2.46,2.46,0,0,0-.6,2.47v.1a17.92,17.92,0,0,0,1.75,3.64,10.52,10.52,0,0,1,1.34,3.68,2.18,2.18,0,0,0,2.48,1.79l1.39-.21a5,5,0,0,1,3.65,1.08,5.51,5.51,0,0,1,1.5,2.3c.05.12.1.25.14.38.08.69-.08.91-.36.52a.27.27,0,0,0-.2-.12c-.32,0-.79.48-1.19,1.36l-.79,1.74-.07.17a1.92,1.92,0,0,1-2.46,1.15l-.19-.07a3.06,3.06,0,0,0-3.24.41,2.69,2.69,0,0,1-3.23.06l-.09-.06a4.19,4.19,0,0,0-3.48-.65,6,6,0,0,1-2.89.33.66.66,0,0,0-.6.12,1.51,1.51,0,0,0-.39,1.34,4.09,4.09,0,0,0,2,2.72,8.14,8.14,0,0,1,2.7,2.52c.51.87,1.4,2.16,2,3a5.19,5.19,0,0,1,.67,3.57l-.12.57a4.77,4.77,0,0,0,1,3.69h0a4.66,4.66,0,0,0,3.56,1.27l.85-.09a3.26,3.26,0,0,1,3,1.4,6.14,6.14,0,0,0,2.8,2.41,2.9,2.9,0,0,1,1.69,2.9l-.12,1.08a2.15,2.15,0,0,0,1.71,2.46,12.09,12.09,0,0,0,1.21.08,12.24,12.24,0,0,0,2.63-.22,30.82,30.82,0,0,0,3.82-1.22,6.69,6.69,0,0,1,3.46-.41h0l0,0a4.9,4.9,0,0,1,2.49,2.28l.44.86a10,10,0,0,0,2.8,3.13l.5.33a2.71,2.71,0,0,0,3.31-.38l.65-.68a18.38,18.38,0,0,1,3.24-2.6,3,3,0,0,1,2.33-.16v-1.33s0,0,0,0a15.26,15.26,0,0,1,1.67-1.23,3,3,0,0,1,.85-.27,2.9,2.9,0,0,1,2.26.62l2.16,1.86c.84.71.63,1.26-.48,1.22l-1.16-.06a4.92,4.92,0,0,0-3.24,1.18,17,17,0,0,0-2.09,2.82v-.73a4.69,4.69,0,0,0-1.89,1.08,19,19,0,0,0-2.39,3.24,1.63,1.63,0,0,1-.7.72,1.66,1.66,0,0,1-1.56,0,1.58,1.58,0,0,1-.42-.31l-1.85-1.68-.31-.28a1.24,1.24,0,0,0-1.74-.14,1.28,1.28,0,0,0-.42.81l-.43,1.65a2.77,2.77,0,0,1-2.33,2.16,12,12,0,0,1-2.32-.35,9.94,9.94,0,0,1-1.31-.41l-.06,0a13.24,13.24,0,0,0-3.61-.88h0a3.68,3.68,0,0,0-2.85,1.73l-.39.62a3,3,0,0,1-2.91,1.4,6.38,6.38,0,0,0-3.41.24,2.75,2.75,0,0,1-1.77-.12,2.8,2.8,0,0,1-1.23-1l-.58-.73-.08-.08a2.15,2.15,0,0,0-2.93-.26l-.19.15a2.15,2.15,0,0,1-3,0,2.74,2.74,0,0,0-3.19-.38l-1.08.58a1.59,1.59,0,0,1-1.89-.15,1.38,1.38,0,0,1-.32-.36,1.67,1.67,0,0,1-.23-.57l-.11-.49a13.65,13.65,0,0,0-1.55-3.62,10.43,10.43,0,0,1-1.08-2.1h0c-.07-.31-.28-1.42-.47-2.47a1.54,1.54,0,0,1,1.25-1.79,1.57,1.57,0,0,1,.53,0c1.16.06,2.22-.43,2.35-1.08a1.47,1.47,0,0,0,0-.49c0-.23-.21-.23-.46,0a4.85,4.85,0,0,1-2.3,1.08,9,9,0,0,1-3.42-.17,7.6,7.6,0,0,0-3.42,0,5.4,5.4,0,0,1-3.53-.52,2.44,2.44,0,0,0-1.75-.19,2.49,2.49,0,0,0-1.36.95l-.3.46a2.91,2.91,0,0,1-3.1,1.16,11.84,11.84,0,0,1-3.47-2.1l-1-.9a8.44,8.44,0,0,0-1.65-1.33s0,0,0,0,.1-1,.24-2a1.77,1.77,0,0,1,2-1.57,1.34,1.34,0,0,1,.43.1l.22.07a8.27,8.27,0,0,0,3.89.21,2.15,2.15,0,0,0,1.38-2.59l-.3-1.5a9.13,9.13,0,0,1,.09-3.79h0a6.63,6.63,0,0,1,1.68-2.64,17.37,17.37,0,0,0,2.16-2.37c.39-.53.29-.84-.18-.83a2.5,2.5,0,0,0-.83.19l-1.29.49a1.7,1.7,0,0,1-2.23-.88,1.32,1.32,0,0,1-.11-.4s0-.07,0-.1l-.09-.55a4.4,4.4,0,0,0-.58-1.55A4.48,4.48,0,0,0,550.6,620.81ZM591,614.48c.35.19.6.52.49.71s-.37,0-.63-.37S590.6,614.28,591,614.48ZM544.13,644.9h0l-.4,1A2.07,2.07,0,0,1,542,647.2a2,2,0,0,1-1-.11h0c-1.08-.44-2.42-1.08-3.06-1.36s-.89-.75-.56-1a7.14,7.14,0,0,1,2.16-.67c.86-.14,2.39-.46,3.42-.7h0C544.07,643.12,544.59,643.8,544.13,644.9Zm-10.64,3.4h0a2.31,2.31,0,0,1-2.06,1.26,2.46,2.46,0,0,1-.6-.07h-.12a2.17,2.17,0,0,0-1.08-.46,4.88,4.88,0,0,1-1.08-.18c0-.11.41-.36,1.08-.63s1.73-.65,2.63-.94l.43-.14C533.6,646.88,534,647.35,533.49,648.3Zm75.87,34.5a8.86,8.86,0,0,1,.2-3.12h0a7.71,7.71,0,0,1,.52-1.13l.4.41a2.15,2.15,0,0,1-.22,3v0ZM598.56,696h0a8.62,8.62,0,0,0-1.3-.62l-.27-.07a8.74,8.74,0,0,0-1.89-.35l-.87-.4c-.64-.31-.89-.74-.55-1a7.43,7.43,0,0,1,2.16-.67c.87-.14,2.44-.46,3.47-.71s1.58.43,1.12,1.54h0l-.39,1h0A2.2,2.2,0,0,1,598.56,696Zm3.1-5.17v0c0-.12.09-1,.24-2a1.77,1.77,0,0,1,1.92-1.58,2.26,2.26,0,0,1,.45.1l.23.08a8.26,8.26,0,0,0,3.89.2,1.85,1.85,0,0,0,1.08-.84l.68.48a1.2,1.2,0,0,1-.12,2.15v.05l-.45.25h0a2.15,2.15,0,0,0-.95,2.9l0,0,.55,1.08a3,3,0,0,1,.33,1.31,2.6,2.6,0,0,1-1.78.12,11.34,11.34,0,0,1-3.47-2.11l-.68-.62-.29-.27A7.71,7.71,0,0,0,601.66,690.84Zm37.58-4.94-1-.11-.09-.54Zm27.22-.33,1.47-.15.33.64-1.53.52-.68-1Zm-3-.46.92.27-.56.31-.8-.26ZM659,689.05l.45.3-.52,2-1.08-.59Zm-10-3.81v.1l1.07,1.92s0,0,0,0l2.23-.76h0l1.77-.07h0l1.23,3.08-2.17-1.19h0l-1.62.52h0l-1.6,1.06s0,0,0,0l-1.17-3.08s0,0,0,0l-1.79,2h0l-1.39-.71h0l-1.18-1.44-.89-.53.84-1.6h0l1.36-.34h0l1.73.71h0Z"/></svg>