<svg height="511pt" viewBox="0 -35 511.9997 511" width="511pt" xmlns="http://www.w3.org/2000/svg"><g fill-rule="evenodd"><path d="m93.285156 179.871094c25.269532-14.367188 32.738282-48.222656 16.679688-75.613282-16.0625-27.394531-49.570313-37.953124-74.839844-23.585937-25.273438 14.371094-32.742188 48.226563-16.679688 75.617187 16.058594 27.394532 49.566407 37.953126 74.839844 23.582032zm0 0" fill="#dca98a"/><path d="m308.839844 67.773438c0-31.632813-23.65625-57.273438-52.839844-57.273438-29.179688 0-52.839844 25.640625-52.839844 57.273438 0 31.628906 23.660156 57.273437 52.839844 57.273437 29.183594 0 52.839844-25.644531 52.839844-57.273437zm0 0" fill="#dca98a"/><path d="m402.035156 104.257812c-16.058594 27.394532-8.589844 61.246094 16.679688 75.613282 25.273437 14.371094 58.78125 3.8125 74.839844-23.582032 16.0625-27.394531 8.59375-61.246093-16.679688-75.617187-25.269531-14.367187-58.777344-3.808594-74.839844 23.585937zm0 0" fill="#dca98a"/><path d="m426.835938 359.191406c0-92.910156-76.488282-168.230468-170.835938-168.230468s-170.832031 75.320312-170.832031 168.230468 76.484375 68.425782 170.832031 68.425782 170.835938 24.484374 170.835938-68.425782zm-170.835938-79.671875c40.597656 0 73.503906 24.851563 73.503906 55.507813 0 30.652344-32.90625 55.503906-73.503906 55.503906s-73.507812-24.851562-73.507812-55.503906c0-30.65625 32.910156-55.507813 73.507812-55.507813zm0 0" fill="#dca98a"/><path d="m329.503906 335.027344c0-30.65625-32.90625-55.507813-73.503906-55.507813s-73.507812 24.851563-73.507812 55.507813c0 30.652344 32.910156 55.503906 73.507812 55.503906s73.503906-24.851562 73.503906-55.503906zm0 0" fill="#c58965"/></g><path d="m256 180.960938c-33.03125 0-65.355469 8.863281-93.472656 25.632812-4.746094 2.828125-6.296875 8.96875-3.46875 13.710938 2.828125 4.746093 8.96875 6.296874 13.710937 3.46875 25.023438-14.921876 53.804688-22.8125 83.230469-22.8125 88.683594 0 160.835938 70.984374 160.835938 158.230468 0 22.457032-4.714844 37.863282-14.414063 47.101563-17.628906 16.785156-54.148437 14.992187-96.433594 12.917969-15.992187-.78125-32.53125-1.59375-49.988281-1.59375s-33.992188.8125-49.984375 1.59375c-42.285156 2.074218-78.804687 3.867187-96.433594-12.917969-9.699219-9.234375-14.414062-24.644531-14.414062-47.101563 0-29.308594 8.210937-57.929687 23.746093-82.777344 2.929688-4.683593 1.507813-10.851562-3.175781-13.78125-4.683593-2.929687-10.855469-1.503906-13.78125 3.175782-17.527343 28.027344-26.789062 60.320312-26.789062 93.378906 0 28.230469 6.746093 48.375 20.621093 61.589844 16.816407 16.011718 41.917969 19.738281 71.707032 19.738281 12.4375 0 25.691406-.648437 39.5-1.328125 15.75-.769531 32.039062-1.570312 49.007812-1.570312 16.964844 0 33.253906.800781 49.003906 1.570312 46.882813 2.296875 87.371094 4.285156 111.207032-18.414062 13.875-13.210938 20.621094-33.355469 20.621094-61.585938 0-98.273438-81.125-178.226562-180.835938-178.226562zm0 0"/><path d="m256 135.046875c34.648438 0 62.839844-30.179687 62.839844-67.273437s-28.191406-67.273438-62.839844-67.273438-62.839844 30.179688-62.839844 67.273438 28.191406 67.273437 62.839844 67.273437zm0-114.546875c23.621094 0 42.839844 21.207031 42.839844 47.273438 0 26.066406-19.21875 47.273437-42.839844 47.273437s-42.835938-21.207031-42.835938-47.273437c0-26.066407 19.214844-47.273438 42.835938-47.273438zm0 0"/><path d="m126.207031 151.890625c4.640625-17.316406 1.863281-36.519531-7.617187-52.691406-18.785156-32.042969-58.445313-44.253907-88.410156-27.21875-13.808594 7.851562-23.75 20.875-27.980469 36.675781-4.640625 17.316406-1.863281 36.523438 7.617187 52.691406 13.035156 22.226563 36.109375 34.910156 59.023438 34.910156 10.121094 0 20.210937-2.472656 29.386718-7.691406 13.8125-7.851562 23.75-20.875 27.980469-36.675781zm-37.867187 19.289063c-6.101563 3.46875-12.820313 5.113281-19.605469 5.113281-15.996094 0-32.332031-9.152344-41.660156-25.0625-6.792969-11.585938-8.816407-25.21875-5.554688-37.398438 2.835938-10.589843 9.425781-19.277343 18.546875-24.464843 20.503906-11.65625 47.988282-2.707032 61.269532 19.949218 6.792968 11.585938 8.816406 25.214844 5.554687 37.398438-2.839844 10.589844-9.425781 19.277344-18.550781 24.464844zm0 0"/><path d="m509.800781 108.652344c-4.230469-15.796875-14.167969-28.820313-27.980469-36.671875-29.964843-17.035157-69.625-4.824219-88.410156 27.21875-9.480468 16.167969-12.257812 35.375-7.617187 52.691406 4.230469 15.796875 14.167969 28.824219 27.980469 36.675781 9.179687 5.21875 19.265624 7.691406 29.386718 7.691406 22.914063 0 45.992188-12.6875 59.023438-34.914062 9.480468-16.167969 12.257812-35.375 7.617187-52.691406zm-24.875 42.578125c-13.28125 22.65625-40.765625 31.605469-61.265625 19.949219-9.125-5.1875-15.710937-13.875-18.550781-24.464844-3.261719-12.179688-1.238281-25.8125 5.554687-37.398438 9.328126-15.910156 25.664063-25.0625 41.664063-25.0625 6.78125 0 13.5 1.644532 19.605469 5.113282 9.121094 5.1875 15.710937 13.875 18.546875 24.464843 3.261719 12.179688 1.238281 25.8125-5.554688 37.398438zm0 0"/><path d="m329.503906 345.027344c5.523438 0 10.003906-4.476563 10.003906-10 0-18.039063-9.058593-34.8125-25.503906-47.230469-15.609375-11.785156-36.207031-18.277344-58.003906-18.277344s-42.394531 6.492188-58.003906 18.277344c-16.445313 12.417969-25.503906 29.191406-25.503906 47.230469 0 18.035156 9.058593 34.808594 25.503906 47.226562 15.609375 11.785156 36.207031 18.277344 58.003906 18.277344 5.105469 0 10.246094-.367188 15.273438-1.089844 5.464843-.789062 9.261718-5.855468 8.472656-11.324218-.785156-5.464844-5.863282-9.265626-11.320313-8.472657-4.085937.585938-8.269531.886719-12.425781.886719-35.015625 0-63.507812-20.414062-63.507812-45.503906s28.492187-45.503906 63.507812-45.503906 63.503906 20.410156 63.503906 45.503906c0 5.523437 4.476563 10 10 10zm0 0"/><path d="m128.941406 247.179688c1.914063 1.742187 4.320313 2.601562 6.722656 2.601562 2.71875 0 5.429688-1.105469 7.402344-3.273438l.003906-.003906c3.71875-4.085937 3.414063-10.410156-.671874-14.125-4.085938-3.714844-10.414063-3.414062-14.128907.675782-3.71875 4.085937-3.417969 10.410156.671875 14.125zm0 0"/><path d="m309.753906 362.875c-5.523437 0-10 4.480469-10 10.003906 0 5.523438 4.476563 10 10 10h.007813c5.523437 0 9.996093-4.476562 9.996093-10 0-5.523437-4.480468-10.003906-10.003906-10.003906zm0 0"/></svg>