<svg height="423pt" viewBox="0 -24 423.25333 423" width="423pt" xmlns="http://www.w3.org/2000/svg"><path d="m344.453125 116.84375c.109375-1.925781.292969-3.828125.292969-5.785156 0-57.496094-46.613282-104.105469-104.105469-104.105469-48.933594 0-89.867187 33.808594-101.007813 79.308594-8.761718-10.886719-22.171874-17.867188-37.234374-17.867188-26.390626 0-47.785157 21.390625-47.785157 47.785157 0 2.464843.246094 4.867187.609375 7.226562-28.515625 12.820312-48.394531 41.410156-48.394531 74.695312 0 45.242188 36.679687 81.917969 81.917969 81.917969h245.761718c45.238282 0 81.917969-36.675781 81.917969-81.917969 0-41.871093-31.433593-76.339843-71.972656-81.257812" fill="#a1b7ff"/><path d="m334.507812 286.847656h-245.761718c-48.933594 0-88.746094-39.8125-88.746094-88.746094 0-33.160156 18.636719-63.539062 47.898438-78.730468-.074219-1.101563-.113282-2.160156-.113282-3.191406 0-30.113282 24.5-54.613282 54.613282-54.613282 12.515624 0 24.410156 4.226563 33.972656 11.859375 15.664062-43.691406 57.015625-73.300781 104.269531-73.300781 61.167969 0 110.933594 49.765625 110.933594 110.933594 41.285156 8.03125 71.679687 44.386718 71.679687 87.042968 0 48.933594-39.8125 88.746094-88.746094 88.746094m-232.109374-211.628906c-22.585938 0-40.960938 18.375-40.960938 40.960938 0 1.863281.167969 3.832031.527344 6.195312.464844 3.03125-1.152344 6.003906-3.945313 7.261719-26.953125 12.113281-44.367187 38.992187-44.367187 68.464843 0 41.40625 33.6875 75.09375 75.09375 75.09375h245.761718c41.402344 0 75.09375-33.6875 75.09375-75.09375 0-37.898437-28.359374-69.921874-65.96875-74.480468-3.574218-.433594-6.191406-3.5625-5.992187-7.15625l.113281-1.820313c.082032-1.183593.167969-2.375.167969-3.585937 0-53.640625-43.644531-97.277344-97.28125-97.277344-44.886719 0-83.695313 30.472656-94.375 74.101562-.617187 2.523438-2.613281 4.476563-5.152344 5.039063-2.527343.570313-5.167969-.363281-6.800781-2.382813-7.832031-9.734374-19.46875-15.320312-31.914062-15.320312" fill="#54596e"/><path d="m409.222656 190.546875c-12.777344 28.578125-41.382812 48.511719-74.714844 48.511719h-245.761718c-33.328125 0-61.9375-19.929688-74.710938-48.507813-.253906 2.492188-.382812 5.011719-.382812 7.550781 0 41.40625 33.6875 75.09375 75.09375 75.09375h245.761718c41.402344 0 75.09375-33.6875 75.09375-75.09375-.003906-2.550781-.132812-5.070312-.378906-7.554687" fill="#92a4e2"/><g fill="#54596e"><path d="m9.492188 177.535156c-1.707032 6.574219-2.664063 13.453125-2.664063 20.566406 0 45.242188 36.679687 81.917969 81.917969 81.917969h245.761718c45.238282 0 81.917969-36.675781 81.917969-81.917969 0-7.105468-.972656-13.96875-2.671875-20.535156-1.152344 4.488282-2.675781 8.824219-4.53125 12.980469.25 2.484375.378906 5.007813.378906 7.554687 0 41.40625-33.6875 75.09375-75.09375 75.09375h-245.761718c-41.40625-.003906-75.09375-33.6875-75.09375-75.09375 0-2.539062.128906-5.058593.382812-7.546874-1.863281-4.167969-3.390625-8.519532-4.542968-13.019532"/><path d="m267.800781 146.339844c-10.554687 0-19.988281-5.898438-24.613281-15.394532-1.648438-3.390624-.242188-7.476562 3.152344-9.128906 3.394531-1.648437 7.472656-.234375 9.128906 3.148438 2.316406 4.761718 7.046875 7.722656 12.332031 7.722656 5.519531 0 10.480469-3.292969 12.632813-8.375 1.472656-3.480469 5.507812-5.078125 8.945312-3.628906 3.476563 1.46875 5.09375 5.476562 3.628906 8.945312-4.300781 10.152344-14.195312 16.710938-25.207031 16.710938zm0 0"/><path d="m158.574219 146.339844c-10.554688 0-19.988281-5.898438-24.613281-15.394532-1.648438-3.390624-.242188-7.476562 3.152343-9.128906 3.40625-1.648437 7.472657-.234375 9.128907 3.148438 2.316406 4.761718 7.046874 7.722656 12.332031 7.722656 5.519531 0 10.480469-3.292969 12.632812-8.375 1.472657-3.480469 5.507813-5.078125 8.945313-3.628906 3.476562 1.46875 5.09375 5.476562 3.628906 8.945312-4.300781 10.152344-14.195312 16.710938-25.207031 16.710938zm0 0"/></g><path d="m102.398438 283.433594c0 13.195312-10.695313 23.894531-23.890626 23.894531-13.195312 0-23.894531-10.699219-23.894531-23.894531 0-13.195313 10.699219-23.894532 23.894531-23.894532 13.195313 0 23.890626 10.699219 23.890626 23.894532zm0 0" fill="#fff"/><path d="m78.507812 314.152344c-16.941406 0-30.722656-13.777344-30.722656-30.71875s13.78125-30.71875 30.722656-30.71875c16.9375 0 30.71875 13.777344 30.71875 30.71875s-13.78125 30.71875-30.71875 30.71875zm0-47.785156c-9.414062 0-17.066406 7.65625-17.066406 17.066406s7.652344 17.066406 17.066406 17.066406c9.414063 0 17.066407-7.65625 17.066407-17.066406s-7.65625-17.066406-17.066407-17.066406zm0 0" fill="#54596e"/><path d="m327.679688 355.113281c0 7.539063-6.113282 13.652344-13.652344 13.652344-7.542969 0-13.652344-6.113281-13.652344-13.652344 0-7.539062 6.109375-13.652343 13.652344-13.652343 7.539062 0 13.652344 6.113281 13.652344 13.652343zm0 0" fill="#fff"/><path d="m314.027344 375.59375c-11.292969 0-20.480469-9.1875-20.480469-20.480469s9.1875-20.480469 20.480469-20.480469c11.292968 0 20.480468 9.1875 20.480468 20.480469s-9.1875 20.480469-20.480468 20.480469zm0-27.308594c-3.765625 0-6.828125 3.066406-6.828125 6.828125s3.0625 6.828125 6.828125 6.828125 6.824218-3.066406 6.824218-6.828125-3.058593-6.828125-6.824218-6.828125zm0 0" fill="#54596e"/><path d="m245.761719 280.019531c0 7.539063-6.113281 13.652344-13.65625 13.652344-7.539063 0-13.652344-6.113281-13.652344-13.652344 0-7.539062 6.113281-13.652343 13.652344-13.652343 7.542969 0 13.65625 6.113281 13.65625 13.652343zm0 0" fill="#fff"/><path d="m232.105469 300.5c-11.292969 0-20.480469-9.1875-20.480469-20.480469s9.1875-20.480469 20.480469-20.480469 20.480469 9.1875 20.480469 20.480469-9.1875 20.480469-20.480469 20.480469zm0-27.308594c-3.765625 0-6.824219 3.066406-6.824219 6.828125s3.058594 6.828125 6.824219 6.828125c3.769531 0 6.828125-3.066406 6.828125-6.828125s-3.058594-6.828125-6.828125-6.828125zm0 0" fill="#54596e"/><path d="m368.640625 280.019531c0 11.3125-9.167969 20.480469-20.480469 20.480469s-20.480468-9.167969-20.480468-20.480469c0-11.308593 9.167968-20.480469 20.480468-20.480469s20.480469 9.171876 20.480469 20.480469zm0 0" fill="#fff"/><path d="m348.160156 307.328125c-15.058594 0-27.308594-12.25-27.308594-27.308594 0-15.054687 12.25-27.304687 27.308594-27.304687s27.304688 12.25 27.304688 27.304687c0 15.058594-12.246094 27.308594-27.304688 27.308594zm0-40.960937c-7.527344 0-13.652344 6.121093-13.652344 13.652343s6.125 13.652344 13.652344 13.652344 13.652344-6.121094 13.652344-13.652344-6.125-13.652343-13.652344-13.652343zm0 0" fill="#54596e"/><path d="m259.414062 334.632812c0 11.3125-9.171874 20.480469-20.480468 20.480469-11.3125 0-20.480469-9.167969-20.480469-20.480469 0-11.308593 9.167969-20.480468 20.480469-20.480468 11.308594 0 20.480468 9.171875 20.480468 20.480468zm0 0" fill="#fff"/><path d="m238.933594 361.941406c-15.058594 0-27.308594-12.25-27.308594-27.308594 0-15.054687 12.25-27.304687 27.308594-27.304687s27.304687 12.25 27.304687 27.304687c0 15.058594-12.246093 27.308594-27.304687 27.308594zm0-40.960937c-7.527344 0-13.652344 6.125-13.652344 13.652343 0 7.53125 6.125 13.652344 13.652344 13.652344s13.652344-6.121094 13.652344-13.652344c0-7.527343-6.125-13.652343-13.652344-13.652343zm0 0" fill="#54596e"/><path d="m163.839844 341.460938c0 11.308593-9.167969 20.480468-20.480469 20.480468-11.308594 0-20.480469-9.171875-20.480469-20.480468 0-11.3125 9.171875-20.480469 20.480469-20.480469 11.3125 0 20.480469 9.167969 20.480469 20.480469zm0 0" fill="#fff"/><path d="m143.359375 368.765625c-15.058594 0-27.304687-12.25-27.304687-27.304687 0-15.058594 12.246093-27.308594 27.304687-27.308594s27.308594 12.25 27.308594 27.308594c0 15.054687-12.25 27.304687-27.308594 27.304687zm0-40.957031c-7.527344 0-13.652344 6.121094-13.652344 13.652344 0 7.527343 6.125 13.652343 13.652344 13.652343s13.652344-6.125 13.652344-13.652343c0-7.53125-6.125-13.652344-13.652344-13.652344zm0 0" fill="#54596e"/><path d="m184.320312 235.648438c0 13.195312-10.699218 23.890624-23.894531 23.890624-13.195312 0-23.890625-10.695312-23.890625-23.890624 0-13.199219 10.695313-23.894532 23.890625-23.894532 13.195313 0 23.894531 10.695313 23.894531 23.894532zm0 0" fill="#fff"/><path d="m160.425781 266.367188c-16.941406 0-30.71875-13.78125-30.71875-30.71875 0-16.941407 13.777344-30.722657 30.71875-30.722657 16.941407 0 30.722657 13.78125 30.722657 30.722657 0 16.9375-13.78125 30.71875-30.722657 30.71875zm0-47.789063c-9.414062 0-17.066406 7.65625-17.066406 17.070313 0 9.410156 7.652344 17.066406 17.066406 17.066406 9.414063 0 17.066407-7.65625 17.066407-17.066406 0-9.414063-7.652344-17.070313-17.066407-17.070313zm0 0" fill="#54596e"/></svg>