<svg id="Layer_1" enable-background="new 0 0 128 128" height="512" viewBox="0 0 128 128" width="512" xmlns="http://www.w3.org/2000/svg"><path d="m122.579 101.112c-.38-.401-1.014-.417-1.414-.037l-1.086 1.031-20.364-24.222v-20.255c8.356-.52 15-7.465 15-15.949 0-8.822-7.178-16-16-16s-16 7.178-16 16c0 8.485 6.644 15.429 15 15.949v17.855l-12.19-14.629s-.001-.001-.001-.001l-18.756-22.506c-.012-.014-.03-.018-.042-.031-.085-.092-.185-.167-.301-.223-.002-.001-.003-.002-.005-.003-.028-.013-.05-.033-.079-.043-.252-.09-.518-.064-.751.042-.006.003-.012.005-.018.008-.126.06-.245.138-.339.251l-36.713 44.053v-8.882c6.414-.512 11.479-5.885 11.479-12.428 0-6.881-5.598-12.479-12.479-12.479s-12.479 5.598-12.479 12.479c0 6.543 5.065 11.916 11.479 12.428v11.282l-14.6 17.304-1.086-1.031c-.4-.38-1.034-.364-1.414.037-.38.4-.364 1.034.037 1.414l1.166 1.107-.885 1.041c-.358.42-.307 1.052.114 1.409.188.16.418.238.647.238.283 0 .564-.12.762-.353l.814-.957 1.09 1.035c.193.184.441.275.688.275.265 0 .529-.104.725-.312.38-.4.364-1.034-.037-1.414l-1.17-1.111 8.198-9.644 5.351 11.89c.162.359.519.59.912.59h76.333c.394 0 .75-.231.912-.59l5.351-11.89 8.198 9.644-1.17 1.111c-.4.38-.417 1.013-.037 1.414.196.207.46.312.725.312.248 0 .495-.091.688-.275l1.09-1.035.814.958c.198.233.479.353.762.353.229 0 .459-.078.647-.238.421-.357.472-.989.114-1.409l-.885-1.041 1.166-1.107c.403-.382.42-1.015.039-1.415z" fill="#e6e7e8"/><circle cx="94.716" cy="37.68" fill="#fa759e" r="15"/><ellipse cx="23.519" cy="57.092" fill="#ffd7e5" rx="11.479" ry="11.479" transform="matrix(.383 -.924 .924 .383 -38.227 56.973)"/><path d="m62 34.988-44.167 53 6 13.333h76.334l6-13.333z" fill="#fff"/><path d="m65.354 39.012v62.309h34.813l6-13.333z" fill="#6dc9f7"/><path d="m17.833 87.988 6 13.333h38.167v-66.333z" fill="#fa759e"/><path d="m17.833 87.988 6 13.333h5.5s11.333-3.333 21.333-16.333c9.596-12.475 11.334-31.667 11.334-31.667v-18.333z" fill="#6dc9f7"/><path d="m53.5 62.571c-5.201 5.741-13.583 8.333-13.583 8.333s1.833 7.5-.833 15.083c-2.667 7.583-9.75 15.333-9.75 15.333s11.333-3.333 21.333-16.333c9.595-12.474 11.333-31.666 11.333-31.666v-8.333s-2.083 10.5-8.5 17.583z" fill="#ffd7e5"/><g fill="#3a2c60"><path d="m77.615 55.288c.198.237.482.36.769.36.226 0 .453-.076.64-.232.424-.354.481-.984.128-1.408l-3.76-4.513c-.354-.424-.985-.482-1.408-.128-.424.354-.481.984-.128 1.408z"/><path d="m118.579 97.111c-.381-.401-1.014-.417-1.414-.037l-1.086 1.031-9.145-10.758s0 0 0-.001l-11.218-13.461v-20.256c8.356-.52 15-7.465 15-15.949 0-8.822-7.178-16-16-16s-16 7.178-16 16c0 8.485 6.644 15.429 15 15.949v17.856l-12.191-14.629c-.354-.424-.984-.482-1.408-.128s-.481.984-.128 1.408l25.009 30.011-5.478 12.174h-36.52v-47-8.333-7.238l8.608 10.329c.354.424.982.481 1.408.128.424-.354.481-.984.128-1.408l-10.376-12.452c-.012-.014-.03-.018-.042-.031-.085-.092-.185-.167-.301-.223-.002-.001-.003-.002-.005-.003-.028-.013-.05-.033-.079-.043-.252-.091-.519-.065-.752.042-.006.002-.011.005-.017.007-.127.061-.246.139-.339.251l-36.714 44.055v-8.882c6.414-.512 11.479-5.885 11.479-12.428 0-6.881-5.598-12.479-12.479-12.479s-12.479 5.598-12.479 12.479c0 6.543 5.065 11.916 11.479 12.428v11.282l-5.454 6.545v.001l-9.145 10.758-1.086-1.031c-.4-.38-1.034-.364-1.414.037-.38.4-.364 1.033.037 1.414l1.166 1.107-.885 1.041c-.358.42-.307 1.052.114 1.409.188.16.418.238.647.238.283 0 .564-.12.762-.353l.814-.957 1.09 1.035c.193.184.441.275.688.275.265 0 .529-.104.725-.312.38-.4.364-1.033-.037-1.414l-1.17-1.111 8.198-9.645 5.351 11.891c.162.359.519.59.912.59h5.5 32.668 38.167c.394 0 .75-.231.912-.59l5.351-11.891 8.198 9.645-1.17 1.111c-.4.38-.417 1.013-.037 1.414.197.207.46.312.725.312.248 0 .495-.091.688-.275l1.09-1.035.814.957c.198.233.479.353.762.353.229 0 .459-.078.647-.238.421-.357.472-.989.114-1.409l-.885-1.041 1.166-1.107c.401-.381.417-1.014.037-1.415zm-37.863-59.432c0-7.72 6.28-14 14-14s14 6.28 14 14c0 7.382-5.747 13.433-13 13.949v-3.192l6.065-5.525c.408-.372.438-1.004.066-1.413-.372-.408-1.004-.439-1.413-.066l-4.719 4.298v-12.022c0-.552-.448-1-1-1s-1 .448-1 1v6.782l-4.513-4.24c-.401-.377-1.035-.358-1.414.044-.378.402-.358 1.035.044 1.414l5.882 5.526v8.395c-7.251-.517-12.998-6.568-12.998-13.95zm-67.676 19.413c0-5.778 4.701-10.479 10.479-10.479s10.479 4.701 10.479 10.479c0 5.441-4.168 9.923-9.479 10.428v-3.143l3.267-2.975c.408-.372.438-1.004.066-1.413s-1.004-.438-1.413-.066l-1.92 1.749v-6.855c0-.552-.448-1-1-1s-1 .448-1 1v3.978l-2.461-2.242c-.409-.373-1.042-.342-1.413.066-.372.408-.342 1.041.066 1.413l3.808 3.469v6.02c-5.31-.506-9.479-4.988-9.479-10.429zm36.834 27.286c-.508.661-1.021 1.287-1.536 1.898-.135.16-.27.318-.405.475-.454.527-.908 1.038-1.363 1.527-.063.068-.126.141-.19.208-.511.545-1.022 1.061-1.531 1.561-.132.13-.264.255-.396.382-.425.409-.849.803-1.27 1.181-.096.086-.193.177-.288.261-.498.441-.991.859-1.479 1.259-.12.099-.239.192-.359.289-.398.32-.792.628-1.181.922-.111.084-.223.171-.333.253-.467.347-.927.677-1.377.988-.098.068-.193.13-.291.196-.372.253-.737.494-1.095.723-.11.07-.22.142-.329.21-.422.265-.835.517-1.231.749-.062.036-.12.068-.181.104-.347.2-.682.388-1.006.564-.096.052-.193.105-.286.155-.356.19-.701.369-1.024.53 2.343-3.007 5.634-7.746 7.303-12.492 2.22-6.313 1.454-12.484 1.045-14.752 2.322-.836 8.777-3.476 13.169-8.325 3.243-3.58 5.399-7.952 6.759-11.5v1.528c-.001.013-.002.02-.004.042-.136 1.345-2.126 19.37-11.121 31.064zm-30.872 3.769 5.176-6.211c.055-.049.096-.107.139-.166l36.683-44.02v7.133c-.213.993-2.388 10.556-8.241 17.017-4.949 5.463-13.057 8.024-13.138 8.05-.505.157-.801.679-.675 1.192.018.072 1.733 7.295-.805 14.514-2.27 6.456-7.931 13.151-9.256 14.665h-4.405zm15.22 12.174c4.096-2.105 10.333-6.181 16.288-13.523.317-.391.633-.791.948-1.201 5.009-6.511 7.902-14.702 9.541-21.21v35.934z"/></g></svg>