<svg xmlns="http://www.w3.org/2000/svg" viewBox="0 0 500 425.34"><defs><style>.cls-1{fill:#f05a28;}.cls-2{fill:#785c4c;}.cls-3,.cls-9{fill:#fff;}.cls-4{fill:#3c2a34;}.cls-5{fill:#eb8a5f;}.cls-6{fill:#e76650;}.cls-7{fill:#fbe4d3;}.cls-8{fill:#f05757;}.cls-9{opacity:0.2;}</style></defs><title>Mesa de trabajo 1</title><g id="OBJECT"><path class="cls-1" d="M459.63,398.81c0,6.3-61.27,11.4-136.86,11.4s-136.86-5.1-136.86-11.4,61.27-11.39,136.86-11.39S459.63,392.52,459.63,398.81Z"/><path class="cls-2" d="M438.87,397s1.42-92.52-28-143.27c0,0-16.43-157.6-41.45-166-17.09-5.78-83.37-3.53-95.82,3.77s-25,177.38-32.33,185S206,344.33,231.76,397C231.76,397,372.15,400.64,438.87,397Z"/><path class="cls-2" d="M363,93.33s9.75-24.07,20.25-19.4c14.46,6.43-1.71,34.93-1.71,34.93Z"/><path class="cls-2" d="M289.6,91.58s-12.44-22.79-22.33-17c-13.64,8,5.69,34.51,5.69,34.51Z"/><path class="cls-3" d="M350,158.37c0,17.83-12.17,26.54-27.18,26.54s-27.18-8.71-27.18-26.54,12.17-53.79,27.18-53.79S350,140.54,350,158.37Z"/><path class="cls-4" d="M334.25,141.82c0,5.11-5.95,9.26-13.29,9.26s-13.29-4.15-13.29-9.26,5.95-9.27,13.29-9.27S334.25,136.7,334.25,141.82Z"/><path class="cls-2" d="M280.11,397.24h-77.3s-23.58-67.53,0-70.86c12.43-1.75,19.48,16.74,19.48,16.74s6.5-42.17,46.46-46.8Z"/><path class="cls-2" d="M267,272s14.34,2.81,19.9,20.57S263.67,325,240.81,300s12.95-75.08,12.95-75.08Z"/><path class="cls-5" d="M263.8,271.66s26.89,5.92,25.3,26.38S264.82,314.23,253,309.58c0,0,27.44,5.35,31.07-4.35S285.18,281.13,263.8,271.66Z"/><path class="cls-4" d="M281.26,91.37A6.59,6.59,0,1,1,275.58,84,6.58,6.58,0,0,1,281.26,91.37Z"/><path class="cls-4" d="M385.69,87.76a6.6,6.6,0,1,1-8-4.8A6.59,6.59,0,0,1,385.69,87.76Z"/><path class="cls-5" d="M304.73,381.68s-10.11-26.06,4.31-23.07S320.74,416.59,304.73,381.68Z"/><path class="cls-5" d="M306.39,348.51c.75,2.34.07,4.65-1.52,5.16s-3.49-1-4.24-3.3-.08-4.65,1.51-5.16S305.63,346.17,306.39,348.51Z"/><path class="cls-5" d="M299.27,354c.76,2.34.08,4.65-1.51,5.16s-3.49-1-4.24-3.3-.08-4.65,1.51-5.16S298.52,351.61,299.27,354Z"/><path class="cls-5" d="M315.14,351.07c-.42,2.42-2.1,4.14-3.74,3.85s-2.64-2.48-2.21-4.9,2.1-4.15,3.74-3.86S315.57,348.64,315.14,351.07Z"/><path class="cls-5" d="M206.42,375.86s-10.11-26.06,4.31-23.07S222.43,410.77,206.42,375.86Z"/><path class="cls-5" d="M208.08,342.69c.75,2.34.07,4.65-1.52,5.16s-3.49-1-4.24-3.3-.08-4.65,1.51-5.16S207.32,340.35,208.08,342.69Z"/><path class="cls-5" d="M201,348.13c.76,2.34.08,4.65-1.51,5.16s-3.49-1-4.24-3.3-.08-4.65,1.51-5.16S200.21,345.79,201,348.13Z"/><path class="cls-5" d="M216.83,345.25c-.42,2.41-2.1,4.14-3.74,3.85s-2.64-2.48-2.22-4.9,2.1-4.15,3.75-3.86S217.26,342.82,216.83,345.25Z"/><path class="cls-5" d="M296.44,397.24s-20.86-48.93,3.14-64.54c21.86-14.22,29.91,25.24,29.91,25.24s19-61.62,75.6-22c0,0-58.53-36.8-74.33,33.4,0,0-11.92-46.32-31.29-34S296.44,397.24,296.44,397.24Z"/><path class="cls-5" d="M230.92,296.32s-15.12,44.67-2,90C228.89,386.33,208.13,346.78,230.92,296.32Z"/><path class="cls-2" d="M453.23,378.09c0,10.57-6.42,19.15-14.35,19.15s-14.34-8.58-14.34-19.15,6.42-19.15,14.34-19.15S453.23,367.51,453.23,378.09Z"/><path class="cls-2" d="M312.62,311.37s-14.55-4.57-13.94-18.82,20-9.3,28.19-12.09C326.87,280.46,333.46,311.57,312.62,311.37Z"/><path class="cls-5" d="M393.83,278.1s-4.06,33.27-53.36,37.53c-45.36,3.92-50.37-24.7-39.11-31.05s43.87,4.21,47.71-32.62c0,0,3.24,21.28-19.09,28.5-21.06,6.82-28,2-29.84,13.29s19,23.71,49.68,17.21C368.11,307.09,384.5,300,393.83,278.1Z"/><path class="cls-6" d="M289.6,141.82a9.26,9.26,0,1,1-9.26-9.27A9.26,9.26,0,0,1,289.6,141.82Z"/><path class="cls-6" d="M377.05,141.82a9.26,9.26,0,1,1-9.26-9.27A9.26,9.26,0,0,1,377.05,141.82Z"/><path class="cls-4" d="M301.23,117.4c0,5-3.61,9-8.06,9s-8.05-4-8.05-9,3.6-9,8.05-9S301.23,112.42,301.23,117.4Z"/><path class="cls-4" d="M360.37,117.4c0,5-3.61,9-8.06,9s-8.06-4-8.06-9,3.61-9,8.06-9S360.37,112.42,360.37,117.4Z"/><polygon class="cls-4" points="322.66 141.82 322.77 160.43 319.84 160.43 320.96 141.82 322.66 141.82"/><ellipse class="cls-3" cx="325.9" cy="137.36" rx="3.13" ry="1.95"/><path class="cls-5" d="M295.24,100.8s-9.58-10.43-11.28,4.84C284,105.64,287.37,98.48,295.24,100.8Z"/><path class="cls-5" d="M362.83,107.84s5.68-13-9-8.38C353.85,99.46,361.78,99.7,362.83,107.84Z"/><path class="cls-4" d="M321.3,114.61a1,1,0,0,1-1-1V111a1,1,0,0,1,2,0v2.63A1,1,0,0,1,321.3,114.61Z"/><path class="cls-4" d="M327.73,116.92a1,1,0,0,1-1-1V113.3a1,1,0,0,1,2,0v2.62A1,1,0,0,1,327.73,116.92Z"/><path class="cls-4" d="M316.14,121a1,1,0,0,1-1-1v-2.62a1,1,0,0,1,2,0V120A1,1,0,0,1,316.14,121Z"/><path class="cls-4" d="M322,124.9a1,1,0,0,1-1-1v-2.62a1,1,0,0,1,2,0v2.62A1,1,0,0,1,322,124.9Z"/><path class="cls-4" d="M327.73,127.76a1,1,0,0,1-1-1v-2.63a1,1,0,0,1,2,0v2.63A1,1,0,0,1,327.73,127.76Z"/><path class="cls-4" d="M333.25,124.55a1,1,0,0,1-1-1v-2.62a1,1,0,0,1,2,0v2.62A1,1,0,0,1,333.25,124.55Z"/><path class="cls-4" d="M312.66,126.87a1,1,0,0,1-1-1v-2.63a1,1,0,0,1,2,0v2.63A1,1,0,0,1,312.66,126.87Z"/><polygon class="cls-7" points="296.25 273.94 296.25 320.88 289.17 320.88 289.17 273.24 296.25 273.94"/><polygon class="cls-3" points="296.25 292.71 296.25 324.24 289.17 324.24 289.17 292.25 296.25 292.71"/><polygon class="cls-8" points="267.78 284.18 240.68 237.25 267.78 190.31 321.97 190.31 349.07 237.25 321.97 284.18 267.78 284.18"/><path class="cls-3" d="M319.19,279.37H270.56l-24.32-42.13,24.32-42.12h48.63l24.32,42.12Zm-47.48-2H318l23.16-40.13L318,197.12H271.71l-23.16,40.12Z"/><path class="cls-4" d="M280.61,285.69s11.87,3.48,11.74,5.61-13,0-13,0Z"/><path class="cls-4" d="M280.61,293.83s11.87,3.48,11.74,5.61-13,0-13,0Z"/><path class="cls-4" d="M279.87,302.68s11.86,3.48,11.74,5.61-13,0-13,0Z"/><path class="cls-4" d="M307.14,288.08s-12.17,2.21-12.26,4.34,12.9,1.37,12.9,1.37Z"/><path class="cls-4" d="M307.1,303s-12.17,2.22-12.27,4.35,12.91,1.36,12.91,1.36Z"/><path class="cls-4" d="M306.29,296.18s-12.17,2.21-12.27,4.34,12.91,1.37,12.91,1.37Z"/><path class="cls-4" d="M327.73,171.83s-1.77-16.66-6.47-15.69-6.12,14.77-6.12,14.77,4.81-9.5,6.49-9.35S327.73,171.83,327.73,171.83Z"/><path class="cls-5" d="M233.25,276.09s1.27,32.91,34.28,35l-4.49,1.5S230.92,308.24,233.25,276.09Z"/><path class="cls-9" d="M321.3,190.31h-53a55.31,55.31,0,0,0,65.45,72.38l14.69-25.45Z"/></g></svg>