<?xml version="1.0" encoding="iso-8859-1"?>
<!-- Generator: Adobe Illustrator 19.0.0, SVG Export Plug-In . SVG Version: 6.00 Build 0)  -->
<svg version="1.1" id="Capa_1" xmlns="http://www.w3.org/2000/svg" xmlns:xlink="http://www.w3.org/1999/xlink" x="0px" y="0px"
	 viewBox="0 0 512 512" style="enable-background:new 0 0 512 512;" xml:space="preserve">
<rect x="241.01" y="214.349" style="fill:#E4EAF8;" width="29.975" height="165.35"/>
<rect x="241.01" y="214.349" style="fill:#D8DCE5;" width="20.605" height="165.35"/>
<path style="fill:#F98585;" d="M487.187,220.099H24.813C11.131,220.099,0,208.968,0,195.286V41.547
	c0-13.682,11.131-24.813,24.813-24.813h462.374c13.682,0,24.813,11.132,24.813,24.813v153.739
	C512,208.968,500.869,220.099,487.187,220.099z"/>
<path style="fill:#5E6377;" d="M284.476,461.493h-56.952v-77.625c0-5.799,4.701-10.5,10.5-10.5h35.952c5.799,0,10.5,4.701,10.5,10.5
	V461.493z"/>
<path style="fill:#505668;" d="M258.947,373.368h-20.605c-5.974,0-10.818,4.843-10.818,10.818v77.308h20.605v-77.308
	C248.129,378.211,252.972,373.368,258.947,373.368z"/>
<path style="fill:#FF5050;" d="M33.012,190.125h445.976c1.677,0,3.037-1.36,3.037-3.037V49.745c0-1.677-1.36-3.037-3.037-3.037
	H33.012c-1.677,0-3.037,1.36-3.037,3.037v137.342C29.975,188.765,31.334,190.125,33.012,190.125z"/>
<path style="fill:#F96464;" d="M20.605,195.286V41.547c0-13.682,11.131-24.813,24.813-24.813H24.813
	C11.131,16.733,0,27.865,0,41.547v153.739c0,13.682,11.131,24.813,24.813,24.813h20.605
	C31.736,220.099,20.605,208.968,20.605,195.286z"/>
<path style="fill:#F24040;" d="M50.58,187.087V49.745c0-1.677,1.36-3.037,3.037-3.037H33.012c-1.677,0-3.037,1.36-3.037,3.037
	v137.342c0,1.677,1.36,3.037,3.037,3.037h20.605C51.939,190.125,50.58,188.765,50.58,187.087z"/>
<g>
	<path style="fill:#E4EAF8;" d="M59.52,90.899c-0.102-0.406-0.203-0.813-0.203-1.117c0-3.758,5.789-6.5,10.157-6.5
		c2.539,0,4.571,0.812,5.18,2.945l14.219,52.105l14.119-52.105c0.609-2.133,2.64-2.945,5.179-2.945c4.367,0,10.158,2.742,10.158,6.5
		c0,0.304-0.102,0.711-0.203,1.117l-18.893,61.957c-1.117,3.555-5.687,5.282-10.36,5.282s-9.243-1.726-10.36-5.282L59.52,90.899z"/>
	<path style="fill:#E4EAF8;" d="M124.217,88.055c0-3.352,3.962-4.773,7.923-4.773s7.922,1.422,7.922,4.773v64.598
		c0,3.251-3.961,4.876-7.922,4.876s-7.923-1.625-7.923-4.876V88.055z"/>
	<path style="fill:#E4EAF8;" d="M181.501,137.62c0-12.29-32.197-10.157-32.197-33.924c0-15.235,13.306-21.025,26.002-21.025
		c5.384,0,20.213,1.016,20.213,8.938c0,2.742-1.828,8.328-6.297,8.328c-3.656,0-5.587-3.859-13.915-3.859
		c-7.211,0-10.157,2.945-10.157,6.094c0,10.157,32.197,8.227,32.197,33.823c0,14.626-10.665,22.548-25.392,22.548
		c-13.306,0-24.478-6.5-24.478-13.204c0-3.453,3.047-8.532,6.907-8.532c4.774,0,7.82,7.516,17.267,7.516
		C176.321,144.324,181.501,142.496,181.501,137.62z"/>
	<path style="fill:#E4EAF8;" d="M205.165,88.055c0-3.352,3.962-4.773,7.923-4.773s7.922,1.422,7.922,4.773v64.598
		c0,3.251-3.961,4.876-7.922,4.876s-7.923-1.625-7.923-4.876V88.055z"/>
	<path style="fill:#E4EAF8;" d="M275.958,83.281c3.352,0,4.774,3.656,4.774,7.008c0,3.859-1.726,7.211-4.774,7.211h-14.016v55.152
		c0,3.251-3.962,4.876-7.923,4.876s-7.922-1.625-7.922-4.876V97.501H232.08c-3.046,0-4.773-3.352-4.773-7.211
		c0-3.352,1.422-7.008,4.773-7.008L275.958,83.281L275.958,83.281z"/>
	<path style="fill:#E4EAF8;" d="M285.1,134.167v-26.916c0-17.469,10.868-23.97,24.884-23.97c14.017,0,24.986,6.5,24.986,23.97
		v26.916c0,17.469-10.97,23.97-24.986,23.97C295.968,158.137,285.1,151.637,285.1,134.167z M319.125,107.251
		c0-7.008-3.453-10.157-9.141-10.157c-5.687,0-9.039,3.149-9.039,10.157v26.916c0,7.008,3.351,10.157,9.039,10.157
		s9.141-3.149,9.141-10.157V107.251z"/>
	<path style="fill:#E4EAF8;" d="M345.125,88.055c0-2.539,1.931-4.773,4.876-4.773h21.025c13.914,0,24.985,5.18,24.985,21.735
		c0,11.376-5.18,17.876-12.289,20.618l12.391,22.447c0.406,0.609,0.508,1.32,0.508,1.828c0,3.961-5.282,8.227-9.954,8.227
		c-2.031,0-3.961-0.812-5.078-2.945l-13.915-27.017h-6.704v24.478c0,3.251-3.961,4.876-7.922,4.876s-7.923-1.625-7.923-4.876
		L345.125,88.055L345.125,88.055z M360.97,97.095v18.892h10.056c5.687,0,9.14-2.336,9.14-9.446s-3.453-9.446-9.14-9.446H360.97z"/>
	<path style="fill:#E4EAF8;" d="M434.912,137.62c0-12.29-32.197-10.157-32.197-33.924c0-15.235,13.306-21.025,26.002-21.025
		c5.384,0,20.213,1.016,20.213,8.938c0,2.742-1.828,8.328-6.297,8.328c-3.656,0-5.587-3.859-13.915-3.859
		c-7.211,0-10.157,2.945-10.157,6.094c0,10.157,32.197,8.227,32.197,33.823c0,14.626-10.665,22.548-25.392,22.548
		c-13.306,0-24.478-6.5-24.478-13.204c0-3.453,3.047-8.532,6.907-8.532c4.774,0,7.82,7.516,17.267,7.516
		C429.732,144.324,434.912,142.496,434.912,137.62z"/>
</g>
<path style="fill:#707487;" d="M319.624,495.265H192.376c-3.268,0-5.917-2.649-5.917-5.917V464.69c0-3.268,2.649-5.917,5.917-5.917
	h127.249c3.268,0,5.917,2.649,5.917,5.917v24.658C325.541,492.616,322.892,495.265,319.624,495.265z"/>
<path style="fill:#5E6377;" d="M319.445,474.66h-126.89c-3.367,0-6.096-2.729-6.096-6.096v20.605c0,3.367,2.729,6.096,6.096,6.096
	h126.891c3.367,0,6.096-2.729,6.096-6.096v-20.605C325.541,471.931,322.812,474.66,319.445,474.66z"/>
<g>
</g>
<g>
</g>
<g>
</g>
<g>
</g>
<g>
</g>
<g>
</g>
<g>
</g>
<g>
</g>
<g>
</g>
<g>
</g>
<g>
</g>
<g>
</g>
<g>
</g>
<g>
</g>
<g>
</g>
</svg>
